<svg xmlns="http://www.w3.org/2000/svg" xmlns:xlink="http://www.w3.org/1999/xlink" width="500" zoomAndPan="magnify" viewBox="0 0 375 374.999991" height="500" preserveAspectRatio="xMidYMid meet" version="1.0"><defs><g/><clipPath id="eec9e41d05"><path d="M 80.949219 96.976562 L 230.949219 96.976562 L 230.949219 246.976562 L 80.949219 246.976562 Z M 80.949219 96.976562 " clip-rule="nonzero"/></clipPath><clipPath id="15f12bafa6"><path d="M 112 84 L 198 84 L 198 233.957031 L 112 233.957031 Z M 112 84 " clip-rule="nonzero"/></clipPath></defs><g clip-path="url(#eec9e41d05)"><path fill="#d9d9d9" d="M 208.992188 118.9375 C 194.832031 104.777344 175.992188 96.976562 155.949219 96.976562 C 114.609375 96.976562 80.949219 130.605469 80.949219 171.976562 C 80.949219 213.347656 114.582031 246.976562 155.949219 246.976562 C 197.320312 246.976562 230.949219 213.347656 230.949219 171.976562 C 230.949219 151.9375 223.152344 133.097656 208.992188 118.9375 Z M 208.992188 118.9375 " fill-opacity="1" fill-rule="nonzero"/></g><g fill="#737373" fill-opacity="1"><g transform="translate(72.681301, 245.99998)"><g><path d="M 81.164062 -155.183594 L 54.542969 -40.472656 L 51.726562 -22.941406 L 48.699219 -40.472656 L 21.644531 -155.183594 L 6.710938 -155.183594 L 45.019531 0 L 58.222656 0 L 96.3125 -155.183594 Z M 81.164062 -155.183594 "/></g></g></g><g fill="#737373" fill-opacity="1"><g transform="translate(135.934155, 245.99998)"><g><path d="M 32.25 -12.984375 L 32.25 -73.371094 L 80.296875 -73.371094 L 80.296875 -86.359375 L 32.25 -86.359375 L 32.25 -142.199219 L 84.625 -142.199219 L 84.625 -155.183594 L 17.53125 -155.183594 L 17.53125 0 L 84.84375 0 L 84.84375 -12.984375 Z M 32.25 -12.984375 "/></g></g></g><g clip-path="url(#15f12bafa6)"><path fill="#7cb342" d="M 176.460938 228.476562 C 174.253906 226.523438 172.199219 224.425781 170.335938 222.1875 C 166.601562 217.71875 163.625 212.71875 161.277344 207.433594 L 160.832031 206.445312 C 160.6875 206.113281 160.554688 205.773438 160.414062 205.441406 L 160.003906 204.4375 C 159.867188 204.101562 159.742188 203.757812 159.613281 203.421875 L 159.222656 202.40625 C 159.09375 202.066406 158.976562 201.722656 158.851562 201.378906 L 158.484375 200.355469 C 158.363281 200.011719 158.253906 199.664062 158.136719 199.320312 C 157.222656 196.558594 156.390625 193.757812 155.65625 190.917969 C 155.46875 190.207031 155.289062 189.496094 155.113281 188.78125 C 154.933594 188.070312 154.753906 187.359375 154.585938 186.640625 C 154.238281 185.207031 153.914062 183.769531 153.597656 182.324219 C 152.957031 179.4375 152.339844 176.53125 151.746094 173.605469 C 151.128906 170.6875 150.519531 167.753906 149.882812 164.8125 C 149.21875 161.878906 148.546875 158.929688 147.773438 155.992188 C 146.992188 153.058594 146.160156 150.121094 145.167969 147.222656 C 144.671875 145.773438 144.15625 144.328125 143.59375 142.898438 C 143.023438 141.46875 142.425781 140.046875 141.777344 138.644531 C 141.449219 137.945312 141.136719 137.242188 140.773438 136.558594 L 140.242188 135.523438 C 140.070312 135.183594 139.875 134.84375 139.6875 134.503906 L 139.128906 133.488281 L 138.535156 132.488281 C 138.332031 132.15625 138.140625 131.824219 137.933594 131.496094 L 137.292969 130.523438 C 137.078125 130.203125 136.875 129.871094 136.648438 129.558594 L 135.972656 128.609375 C 135.535156 127.972656 135.046875 127.367188 134.566406 126.757812 L 134.207031 126.300781 L 133.832031 125.859375 L 133.074219 124.976562 C 132.828125 124.679688 132.558594 124.402344 132.292969 124.121094 L 131.5 123.273438 C 130.960938 122.722656 130.390625 122.199219 129.839844 121.664062 C 129.265625 121.144531 128.683594 120.640625 128.101562 120.140625 C 127.496094 119.667969 126.894531 119.191406 126.289062 118.726562 C 125.660156 118.285156 125.039062 117.839844 124.402344 117.417969 C 121.851562 115.742188 119.140625 114.359375 116.328125 113.308594 C 118.828125 114.972656 121.195312 116.78125 123.359375 118.773438 C 125.523438 120.761719 127.492188 122.929688 129.226562 125.25 C 132.714844 129.886719 135.324219 135.082031 137.339844 140.515625 C 137.851562 141.871094 138.320312 143.246094 138.757812 144.636719 C 139.203125 146.019531 139.621094 147.417969 140.011719 148.824219 C 140.785156 151.648438 141.5 154.496094 142.132812 157.378906 C 142.777344 160.253906 143.394531 163.15625 143.96875 166.074219 L 145.757812 174.863281 C 146.386719 177.800781 147.015625 180.746094 147.722656 183.691406 C 148.078125 185.164062 148.449219 186.632812 148.839844 188.101562 C 149.03125 188.835938 149.234375 189.570312 149.441406 190.304688 C 149.636719 191.039062 149.863281 191.769531 150.082031 192.5 C 150.972656 195.421875 151.941406 198.332031 153.089844 201.183594 C 153.230469 201.542969 153.367188 201.902344 153.515625 202.257812 L 153.964844 203.320312 C 154.117188 203.675781 154.265625 204.03125 154.421875 204.382812 L 154.90625 205.433594 C 155.070312 205.78125 155.226562 206.136719 155.394531 206.480469 L 155.914062 207.519531 C 156.085938 207.863281 156.253906 208.210938 156.433594 208.554688 L 156.980469 209.578125 C 157.167969 209.914062 157.339844 210.261719 157.535156 210.59375 L 158.121094 211.597656 C 158.320312 211.929688 158.507812 212.265625 158.714844 212.59375 L 159.335938 213.578125 C 159.546875 213.902344 159.742188 214.234375 159.964844 214.550781 L 160.621094 215.511719 C 161.042969 216.15625 161.519531 216.769531 161.980469 217.390625 C 163.847656 219.863281 165.921875 222.167969 168.175781 224.261719 C 172.691406 228.449219 177.9375 231.734375 183.519531 233.9375 C 181.042969 232.234375 178.671875 230.433594 176.460938 228.476562 Z M 124.832031 84.066406 C 124.671875 83.960938 124.46875 84.113281 124.519531 84.300781 C 125.421875 87.398438 123.464844 90.480469 122.105469 94.40625 C 120.660156 98.566406 119.886719 103.671875 123.890625 110.753906 C 123.90625 110.785156 123.925781 110.816406 123.945312 110.84375 C 124.125 111.128906 124.550781 111.085938 124.664062 110.769531 C 124.789062 110.429688 124.902344 110.085938 125.015625 109.742188 C 125.300781 108.882812 125.554688 108.011719 125.789062 107.132812 C 125.910156 106.691406 126.019531 106.25 126.128906 105.808594 C 126.234375 105.367188 126.335938 104.921875 126.433594 104.476562 C 126.625 103.582031 126.796875 102.6875 126.945312 101.785156 C 127.09375 100.882812 127.21875 99.976562 127.3125 99.066406 C 127.402344 98.15625 127.464844 97.246094 127.476562 96.328125 C 127.480469 95.871094 127.472656 95.414062 127.441406 94.957031 C 127.425781 94.703125 127.402344 94.449219 127.375 94.195312 C 127.371094 94.164062 127.414062 94.15625 127.421875 94.1875 C 127.46875 94.4375 127.511719 94.691406 127.546875 94.945312 C 127.609375 95.402344 127.65625 95.863281 127.683594 96.324219 C 127.746094 97.246094 127.753906 98.167969 127.730469 99.09375 C 127.707031 100.019531 127.652344 100.941406 127.574219 101.863281 C 127.492188 102.785156 127.390625 103.703125 127.261719 104.621094 C 127.199219 105.082031 127.128906 105.539062 127.054688 105.996094 C 126.980469 106.453125 126.902344 106.910156 126.816406 107.367188 C 126.644531 108.277344 126.453125 109.1875 126.230469 110.09375 C 126.152344 110.410156 126.070312 110.726562 125.984375 111.039062 C 125.890625 111.390625 126.261719 111.679688 126.574219 111.507812 L 126.582031 111.5 C 136.042969 106.097656 136.121094 91.351562 124.832031 84.066406 Z M 139.585938 177.992188 L 139.597656 177.988281 C 140.09375 177.847656 140.167969 177.171875 139.722656 176.917969 C 139.316406 176.6875 138.910156 176.449219 138.511719 176.210938 C 137.367188 175.527344 136.25 174.804688 135.152344 174.058594 C 134.601562 173.6875 134.058594 173.308594 133.519531 172.921875 C 132.980469 172.535156 132.445312 172.144531 131.914062 171.746094 C 130.855469 170.949219 129.816406 170.128906 128.800781 169.28125 C 127.78125 168.433594 126.789062 167.558594 125.828125 166.648438 C 124.867188 165.738281 123.933594 164.796875 123.0625 163.804688 C 122.625 163.308594 122.203125 162.800781 121.804688 162.273438 C 121.582031 161.980469 121.363281 161.683594 121.160156 161.378906 C 121.132812 161.34375 121.1875 161.304688 121.214844 161.339844 C 121.441406 161.625 121.675781 161.90625 121.917969 162.175781 C 122.355469 162.667969 122.808594 163.140625 123.28125 163.597656 C 124.21875 164.511719 125.207031 165.367188 126.222656 166.191406 C 127.242188 167.015625 128.285156 167.800781 129.351562 168.558594 C 130.417969 169.320312 131.5 170.046875 132.601562 170.75 C 133.152344 171.101562 133.707031 171.445312 134.261719 171.78125 C 134.820312 172.117188 135.382812 172.449219 135.949219 172.773438 C 137.078125 173.417969 138.222656 174.039062 139.382812 174.617188 C 139.84375 174.847656 140.308594 175.074219 140.773438 175.289062 C 141.210938 175.492188 141.6875 175.101562 141.582031 174.632812 C 141.570312 174.582031 141.558594 174.535156 141.546875 174.484375 C 138.390625 163.242188 132.425781 158.878906 126.746094 156.160156 C 121.386719 153.59375 116.285156 152.484375 114.042969 148.433594 C 113.910156 148.191406 113.550781 148.25 113.492188 148.519531 C 109.5 167.421875 124.550781 182.21875 139.585938 177.992188 Z M 167.535156 207.851562 L 167.515625 207.855469 C 166.6875 207.925781 166.183594 206.949219 166.714844 206.304688 C 167.199219 205.71875 167.671875 205.128906 168.136719 204.53125 C 169.472656 202.832031 170.753906 201.09375 171.988281 199.328125 C 172.605469 198.445312 173.210938 197.554688 173.804688 196.65625 C 174.398438 195.761719 174.984375 194.855469 175.554688 193.949219 C 176.699219 192.128906 177.800781 190.28125 178.851562 188.40625 C 179.902344 186.535156 180.902344 184.632812 181.835938 182.699219 C 182.769531 180.765625 183.632812 178.800781 184.386719 176.792969 C 184.761719 175.789062 185.109375 174.769531 185.410156 173.742188 C 185.578125 173.171875 185.734375 172.59375 185.867188 172.015625 C 185.882812 171.945312 185.785156 171.917969 185.765625 171.984375 C 185.585938 172.550781 185.386719 173.109375 185.179688 173.664062 C 184.800781 174.660156 184.382812 175.636719 183.9375 176.601562 C 183.039062 178.53125 182.035156 180.402344 180.972656 182.238281 C 179.90625 184.074219 178.777344 185.871094 177.601562 187.636719 C 176.425781 189.402344 175.203125 191.136719 173.941406 192.835938 C 173.308594 193.6875 172.671875 194.53125 172.019531 195.363281 C 171.367188 196.199219 170.710938 197.023438 170.039062 197.839844 C 168.703125 199.476562 167.324219 201.074219 165.90625 202.625 C 165.335938 203.242188 164.761719 203.851562 164.183594 204.453125 C 163.636719 205.011719 162.691406 204.699219 162.582031 203.921875 C 162.570312 203.84375 162.558594 203.761719 162.554688 203.679688 C 160.855469 184.832031 167.375 174.769531 174.40625 167.355469 C 181.042969 160.359375 188.128906 155.722656 189.1875 148.292969 C 189.253906 147.851562 189.828125 147.726562 190.070312 148.101562 C 206.996094 174.398438 192.730469 205.53125 167.535156 207.851562 " fill-opacity="1" fill-rule="nonzero"/></g></svg>